<?xml version="1.0" standalone="no"?>
<!DOCTYPE svg PUBLIC "-//W3C//DTD SVG 20010904//EN"
 "http://www.w3.org/TR/2001/REC-SVG-20010904/DTD/svg10.dtd">
<svg version="1.0" xmlns="http://www.w3.org/2000/svg"
 width="1080.000000pt" height="1080.000000pt" viewBox="0 0 1080.000000 1080.000000"
 preserveAspectRatio="xMidYMid meet">
<metadata>
Created by potrace 1.14, written by Peter Selinger 2001-2017
</metadata>
<g transform="translate(0.000000,1080.000000) scale(0.100000,-0.100000)"
fill="#000000" stroke="none">
<path d="M2351 9275 c-264 -67 -453 -230 -532 -459 -27 -75 -29 -93 -29 -229
0 -132 3 -157 25 -223 38 -115 81 -182 174 -274 74 -73 98 -90 173 -122 125
-54 187 -68 307 -68 130 0 210 19 322 76 285 147 435 463 359 760 -50 195
-163 352 -325 452 -28 17 -93 45 -145 63 -112 37 -240 47 -329 24z m305 -156
c81 -25 170 -85 239 -162 79 -87 75 -100 -35 -109 -47 -3 -103 -8 -124 -10
-39 -3 -39 -3 -85 74 -25 43 -74 111 -108 152 -34 41 -59 77 -55 81 9 9 97 -4
168 -26z m-303 -53 c66 -49 109 -97 161 -178 48 -75 47 -92 -5 -107 -23 -7
-82 -30 -132 -52 -50 -21 -94 -39 -99 -39 -5 0 -38 31 -74 69 -36 38 -89 84
-117 102 -50 32 -67 47 -67 60 0 3 26 32 58 65 58 59 160 123 197 124 11 0 46
-20 78 -44z m-328 -316 c60 -41 136 -126 129 -144 -3 -9 -10 -16 -15 -16 -4 0
-48 -38 -97 -85 -49 -47 -94 -85 -100 -85 -43 0 -41 290 2 359 8 13 30 5 81
-29z m981 -34 c17 -13 19 -27 18 -133 0 -102 -4 -127 -26 -184 -32 -80 -66
-137 -120 -195 -62 -67 -68 -62 -68 60 0 108 -28 299 -54 374 -8 23 -13 48
-10 56 10 27 228 45 260 22z m-388 -63 c5 -10 20 -58 32 -108 30 -117 42 -441
17 -478 -20 -30 -89 -47 -195 -47 -118 0 -119 1 -96 91 27 106 25 250 -6 364
l-24 88 23 16 c32 21 202 91 223 91 10 0 21 -8 26 -17z m-363 -235 c33 -113 7
-329 -42 -336 -24 -4 -153 104 -184 155 l-21 33 22 27 c66 85 183 188 201 177
5 -2 15 -28 24 -56z"/>
<path d="M3513 8666 c-41 -35 -25 -72 47 -110 247 -129 376 -265 456 -481 28
-75 53 -105 89 -105 27 0 55 29 55 58 0 31 -53 169 -92 237 -98 172 -248 309
-431 394 -82 37 -88 38 -124 7z"/>
<path d="M3410 8407 c-44 -22 -34 -99 15 -111 37 -10 168 -100 209 -146 21
-23 54 -77 73 -119 19 -42 40 -87 46 -101 17 -33 58 -47 93 -31 25 11 26 15
22 61 -14 140 -163 328 -327 413 -86 45 -101 49 -131 34z"/>
<path d="M5670 8414 c-144 -21 -191 -32 -293 -66 -118 -38 -249 -101 -336
-160 -149 -102 -283 -234 -327 -324 -39 -80 -45 -193 -15 -283 12 -35 20 -66
17 -69 -3 -3 -61 7 -128 21 -134 28 -218 42 -316 52 -57 6 -66 5 -88 -16 -13
-12 -24 -30 -24 -38 0 -9 32 -107 71 -218 80 -227 82 -248 26 -310 -25 -26
-45 -37 -82 -44 -52 -9 -85 -36 -85 -69 0 -45 228 -349 409 -545 109 -117 281
-279 404 -378 48 -39 87 -77 87 -84 0 -7 -18 -82 -40 -167 -78 -304 -110 -533
-110 -795 0 -323 48 -546 167 -772 61 -116 125 -200 231 -301 127 -120 276
-213 440 -274 40 -14 77 -35 83 -45 6 -12 9 -267 7 -721 -3 -758 -1 -721 -57
-781 -43 -47 -60 -51 -209 -57 -143 -5 -144 -5 -168 -33 -28 -33 -25 -61 9
-91 20 -16 37 -18 172 -14 133 3 155 6 195 27 80 42 118 79 152 149 l33 67 3
711 c2 559 5 714 15 722 9 8 26 8 57 0 25 -6 119 -10 210 -10 174 0 304 19
421 60 31 11 62 16 68 13 9 -6 11 -199 9 -742 l-3 -735 -28 -42 c-42 -64 -87
-82 -207 -82 -127 0 -160 -14 -160 -71 0 -50 24 -59 156 -59 156 0 198 14 280
95 105 104 98 40 104 934 l5 774 87 52 c286 173 487 406 623 725 100 233 177
513 215 780 63 438 48 1040 -36 1465 -114 577 -485 1141 -954 1450 -237 156
-517 258 -810 295 -80 9 -226 12 -280 4z m429 -162 c378 -83 713 -281 962
-568 159 -182 253 -325 353 -536 126 -264 177 -461 217 -838 28 -258 30 -733
5 -950 -46 -403 -135 -723 -277 -1001 -170 -330 -448 -565 -802 -678 -152 -48
-268 -64 -432 -58 -203 8 -321 37 -500 122 -372 177 -593 505 -646 956 -17
146 -6 458 21 618 58 345 144 633 315 1056 82 205 95 253 95 367 0 146 -49
286 -138 396 -26 32 -126 134 -221 226 -219 209 -241 241 -241 345 0 73 36
136 131 226 174 166 377 273 619 326 118 25 403 21 539 -9z m-1619 -822 c193
-35 330 -78 437 -137 27 -15 98 -76 159 -137 88 -88 118 -126 147 -183 71
-144 75 -281 15 -438 -69 -177 -155 -401 -172 -447 -10 -27 -23 -48 -30 -48
-20 0 -236 192 -361 321 -160 165 -395 455 -395 486 0 5 20 24 45 42 31 22 53
50 76 96 29 59 31 71 26 132 -4 45 -22 111 -51 192 -25 67 -43 127 -40 132 7
13 25 11 144 -11z"/>
<path d="M6086 7827 c-10 -7 -20 -33 -24 -62 l-7 -50 -50 -5 c-37 -4 -51 -9
-53 -22 -3 -15 4 -18 37 -18 44 0 53 -10 65 -69 17 -91 83 -78 102 20 9 42 18
49 67 49 31 0 38 3 35 18 -2 13 -15 18 -51 20 -46 3 -47 4 -47 35 0 32 -32 97
-48 97 -4 0 -16 -6 -26 -13z"/>
<path d="M5685 6800 c-17 -19 -17 -24 4 -132 32 -159 83 -353 130 -488 99
-288 206 -531 241 -550 31 -16 60 -9 83 21 l19 27 -75 163 c-67 146 -111 260
-175 454 -22 63 -82 296 -82 314 0 21 24 10 177 -75 164 -91 222 -114 292
-114 96 0 209 58 263 135 18 25 36 45 40 45 13 0 97 -134 133 -213 45 -98 82
-213 104 -325 10 -52 27 -102 36 -112 23 -25 56 -25 86 -1 l24 19 -23 114
c-47 232 -143 452 -275 633 -98 136 -121 136 -166 5 -13 -36 -33 -81 -46 -101
-30 -46 -96 -79 -158 -79 -50 0 -49 0 -377 179 -101 56 -196 101 -211 101 -14
0 -34 -9 -44 -20z"/>
</g>
</svg>
